<svg xmlns="http://www.w3.org/2000/svg" xmlns:xlink="http://www.w3.org/1999/xlink" version="1.1" width="256" height="256" viewBox="0 0 256 256" xml:space="preserve">

<defs>
</defs>
<g style="stroke: none; stroke-width: 0; stroke-dasharray: none; stroke-linecap: butt; stroke-linejoin: miter; stroke-miterlimit: 10; fill: none; fill-rule: nonzero; opacity: 1;" transform="translate(1.4065934065934016 1.4065934065934016) scale(2.81 2.81)" >
	<path d="M 45 0 C 29.897 0 17.611 12.286 17.611 27.389 C 17.611 46.616 43.853 66.607 45 90 c 1.147 -23.393 27.389 -43.384 27.389 -62.611 C 72.389 12.286 60.103 0 45 0 z M 45 35.777 c -5.084 0 -9.205 -4.121 -9.205 -9.205 c 0 -5.083 4.121 -9.205 9.205 -9.205 s 9.205 4.121 9.205 9.205 C 54.205 31.656 50.084 35.777 45 35.777 z" style="stroke: none; stroke-width: 1; stroke-dasharray: none; stroke-linecap: butt; stroke-linejoin: miter; stroke-miterlimit: 10; fill: rgb(255,80,80); fill-rule: nonzero; opacity: 1;" transform=" matrix(1 0 0 1 0 0) " stroke-linecap="round" />
</g>
</svg>